<svg xmlns="http://www.w3.org/2000/svg" width="1437" height="659" viewBox="0 0 1437 659" fill="none">
<path d="M645.516 1.2793L360.504 657.719" stroke="#0D2E4D" stroke-width="2.22159" stroke-linecap="round" stroke-linejoin="round"/>
<path d="M424.479 1.28125L2.00195 244.86" stroke="#0D2E4D" stroke-width="2.22159" stroke-linecap="round" stroke-linejoin="round"/>
<path d="M350.798 1.28125L2.00195 162.176" stroke="#0D2E4D" stroke-width="2.22159" stroke-linecap="round" stroke-linejoin="round"/>
<path d="M277.124 1.28125L2 107.044" stroke="#0D2E4D" stroke-width="2.22159" stroke-linecap="round" stroke-linejoin="round"/>
<path d="M498.161 1.28125L2 382.64" stroke="#0D2E4D" stroke-width="2.22159" stroke-linecap="round" stroke-linejoin="round"/>
<path d="M203.443 1.28125L2 67.659" stroke="#0D2E4D" stroke-width="2.22159" stroke-linecap="round" stroke-linejoin="round"/>
<path d="M56.0801 1.28125L2 15.1434" stroke="#0D2E4D" stroke-width="2.22159" stroke-linecap="round" stroke-linejoin="round"/>
<path d="M129.761 1.28125L2 38.1174" stroke="#0D2E4D" stroke-width="2.22159" stroke-linecap="round" stroke-linejoin="round"/>
<path d="M1234.95 1.2793L1436.65 67.7774" stroke="#0D2E4D" stroke-width="2.22159" stroke-linecap="round" stroke-linejoin="round"/>
<path d="M719.197 1.2793L718.704 657.719" stroke="#0D2E4D" stroke-width="2.22159" stroke-linecap="round" stroke-linejoin="round"/>
<path d="M1308.63 1.2793L1436.65 38.2025" stroke="#0D2E4D" stroke-width="2.22159" stroke-linecap="round" stroke-linejoin="round"/>
<path d="M1382.31 1.2793L1436.64 15.2106" stroke="#0D2E4D" stroke-width="2.22159" stroke-linecap="round" stroke-linejoin="round"/>
<path d="M1161.27 1.2793L1436.65 107.204" stroke="#0D2E4D" stroke-width="2.22159" stroke-linecap="round" stroke-linejoin="round"/>
<path d="M1087.59 1.2793L1436.65 162.396" stroke="#0D2E4D" stroke-width="2.22159" stroke-linecap="round" stroke-linejoin="round"/>
<path d="M940.234 1.2793L1436.65 383.273" stroke="#0D2E4D" stroke-width="2.22159" stroke-linecap="round" stroke-linejoin="round"/>
<path d="M1013.92 1.2793L1436.65 245.216" stroke="#0D2E4D" stroke-width="2.22159" stroke-linecap="round" stroke-linejoin="round"/>
<path d="M792.879 1.2793L1076.91 657.719" stroke="#0D2E4D" stroke-width="2.22159" stroke-linecap="round" stroke-linejoin="round"/>
<path d="M571.833 1.2793L2.30469 657.719" stroke="#0D2E4D" stroke-width="2.22159" stroke-linecap="round" stroke-linejoin="round"/>
<path d="M866.555 1.2793L1435.11 657.719" stroke="#0D2E4D" stroke-width="2.22159" stroke-linecap="round" stroke-linejoin="round"/>
<path d="M1435.11 657.719H2.30859" stroke="#0D2E4D" stroke-width="2.22159" stroke-linecap="round" stroke-linejoin="round"/>
<path d="M1436.65 90.8657H2.00195" stroke="#0D2E4D" stroke-width="2.22159" stroke-linecap="round" stroke-linejoin="round"/>
<path d="M1436.65 30.7895H2.00195" stroke="#0D2E4D" stroke-width="2.22159" stroke-linecap="round" stroke-linejoin="round"/>
<path d="M1436.65 43.0376H2.00195" stroke="#0D2E4D" stroke-width="2.22159" stroke-linecap="round" stroke-linejoin="round"/>
<path d="M1436.65 56.8911H2.00195" stroke="#0D2E4D" stroke-width="2.22159" stroke-linecap="round" stroke-linejoin="round"/>
<path d="M1436.65 10.0962H2.00195" stroke="#0D2E4D" stroke-width="2.22159" stroke-linecap="round" stroke-linejoin="round"/>
<path d="M1436.65 19.8794H2.00195" stroke="#0D2E4D" stroke-width="2.22159" stroke-linecap="round" stroke-linejoin="round"/>
<path d="M1436.65 483.944H2.00195" stroke="#0D2E4D" stroke-width="2.22159" stroke-linecap="round" stroke-linejoin="round"/>
<path d="M1436.65 111.997H2.00195" stroke="#0D2E4D" stroke-width="2.22159" stroke-linecap="round" stroke-linejoin="round"/>
<path d="M1436.65 72.6919H2.00195" stroke="#0D2E4D" stroke-width="2.22159" stroke-linecap="round" stroke-linejoin="round"/>
<path d="M1436.65 1.27974H2.00195" stroke="#0D2E4D" stroke-width="2.22159" stroke-linecap="round" stroke-linejoin="round"/>
<path d="M1436.65 136.873H2.00195" stroke="#0D2E4D" stroke-width="2.22159" stroke-linecap="round" stroke-linejoin="round"/>
<path d="M1436.65 166.59H2.00195" stroke="#0D2E4D" stroke-width="2.22159" stroke-linecap="round" stroke-linejoin="round"/>
<path d="M1436.65 380.065H2.00195" stroke="#0D2E4D" stroke-width="2.22159" stroke-linecap="round" stroke-linejoin="round"/>
<path d="M1436.65 616.831H2.00195" stroke="#0D2E4D" stroke-width="2.22159" stroke-linecap="round" stroke-linejoin="round"/>
<path d="M1436.65 202.713H2.00195" stroke="#0D2E4D" stroke-width="2.22159" stroke-linecap="round" stroke-linejoin="round"/>
<path d="M1436.65 247.559H2.00195" stroke="#0D2E4D" stroke-width="2.22159" stroke-linecap="round" stroke-linejoin="round"/>
<path d="M1436.65 304.717H2.00195" stroke="#0D2E4D" stroke-width="2.22159" stroke-linecap="round" stroke-linejoin="round"/>
</svg>